<svg width="101" height="100" viewBox="0 0 101 100" fill="none" xmlns="http://www.w3.org/2000/svg">
<path d="M81.7496 50C81.7453 45.0929 80.587 40.2556 78.368 35.8789C76.1491 31.5021 72.9319 27.7086 68.9762 24.8047L66.5543 11.3672C66.2887 9.92604 65.5251 8.624 64.397 7.68865C63.2688 6.75329 61.8479 6.2441 60.3824 6.25005H40.6168C39.1513 6.2441 37.7304 6.75329 36.6023 7.68865C35.4741 8.624 34.7105 9.92604 34.4449 11.3672L32.023 24.8047C28.0669 27.7075 24.85 31.501 22.6326 35.8782C20.4152 40.2554 19.2598 45.0933 19.2598 50C19.2598 54.9068 20.4152 59.7447 22.6326 64.1219C24.85 68.4991 28.0669 72.2926 32.023 75.1954L34.4449 88.6329C34.7105 90.0741 35.4741 91.3761 36.6023 92.3115C37.7304 93.2468 39.1513 93.756 40.6168 93.7501H60.3824C61.8479 93.756 63.2688 93.2468 64.397 92.3115C65.5251 91.3761 66.2887 90.0741 66.5543 88.6329L68.9762 75.1954C72.9319 72.2915 76.1491 68.498 78.368 64.1212C80.587 59.7445 81.7453 54.9072 81.7496 50ZM40.6168 12.5001H60.3824L61.9059 20.9376C54.5816 18.0197 46.4176 18.0197 39.0934 20.9376L40.6168 12.5001ZM25.4996 50C25.4996 45.0555 26.9658 40.222 29.7129 36.1108C32.4599 31.9996 36.3644 28.7953 40.9325 26.9031C45.5007 25.0109 50.5273 24.5158 55.3769 25.4804C60.2264 26.4451 64.681 28.8261 68.1773 32.3224C71.6736 35.8187 74.0546 40.2733 75.0192 45.1228C75.9839 49.9723 75.4888 54.999 73.5966 59.5671C71.7044 64.1353 68.5001 68.0398 64.3889 70.7868C60.2776 73.5338 55.4441 75.0001 50.4996 75.0001C43.8724 74.9897 37.5195 72.3525 32.8334 67.6663C28.1472 62.9801 25.5099 56.6273 25.4996 50ZM60.3824 87.5001H40.6168L39.0934 79.0626C46.4176 81.9804 54.5816 81.9804 61.9059 79.0626L60.3824 87.5001ZM47.3746 50V34.3751C47.3746 33.5462 47.7039 32.7514 48.2899 32.1653C48.876 31.5793 49.6708 31.2501 50.4996 31.2501C51.3284 31.2501 52.1233 31.5793 52.7093 32.1653C53.2954 32.7514 53.6246 33.5462 53.6246 34.3751V46.875H66.1246C66.9534 46.875 67.7483 47.2043 68.3343 47.7903C68.9204 48.3764 69.2496 49.1712 69.2496 50C69.2496 50.8289 68.9204 51.6237 68.3343 52.2098C67.7483 52.7958 66.9534 53.125 66.1246 53.125H50.4996C49.6708 53.125 48.876 52.7958 48.2899 52.2098C47.7039 51.6237 47.3746 50.8289 47.3746 50Z" fill="black"/>
</svg>
