<svg width="46" height="46" viewBox="0 0 46 46" fill="none" xmlns="http://www.w3.org/2000/svg">
<path d="M5.5 45.5C4.125 45.5 2.9475 45.0108 1.9675 44.0325C0.989166 43.0525 0.5 41.875 0.5 40.5V5.5C0.5 4.125 0.989166 2.9475 1.9675 1.9675C2.9475 0.989166 4.125 0.5 5.5 0.5H28V5.5H5.5V40.5H40.5V18H45.5V40.5C45.5 41.875 45.0108 43.0525 44.0325 44.0325C43.0525 45.0108 41.875 45.5 40.5 45.5H5.5ZM35.5 15.5V10.5H30.5V5.5H35.5V0.5H40.5V5.5H45.5V10.5H40.5V15.5H35.5ZM8 35.5H38L28.625 23L21.125 33L15.5 25.5L8 35.5Z" fill="black"/>
</svg>
