<svg width="28" height="28" viewBox="0 0 28 28" fill="none" xmlns="http://www.w3.org/2000/svg">
<path d="M26.5314 0.648438H19.9689C19.7513 0.648438 19.5427 0.734863 19.3888 0.888701C19.235 1.04254 19.1486 1.25119 19.1486 1.46875C19.1486 1.68631 19.235 1.89496 19.3888 2.0488C19.5427 2.20264 19.7513 2.28906 19.9689 2.28906H24.549L18.1505 8.6875C16.5753 7.34433 14.6427 6.48934 12.5893 6.22713C10.5358 5.96491 8.45042 6.30683 6.5882 7.21106C4.72598 8.11529 3.16764 9.54263 2.10379 11.3185C1.03995 13.0944 0.516709 15.1418 0.598076 17.2104C0.679444 19.2789 1.36189 21.2789 2.56194 22.9657C3.762 24.6525 5.42764 25.9531 7.35513 26.7082C9.28263 27.4634 11.3884 27.6404 13.415 27.2177C15.4415 26.795 17.3009 25.7909 18.7658 24.3281C20.6607 22.4257 21.7693 19.8791 21.8707 17.1958C21.972 14.5125 21.0587 11.8896 19.3126 9.84961L25.7111 3.45117V8.03125C25.7111 8.24881 25.7975 8.45746 25.9513 8.6113C26.1052 8.76514 26.3138 8.85156 26.5314 8.85156C26.749 8.85156 26.9576 8.76514 27.1114 8.6113C27.2653 8.45746 27.3517 8.24881 27.3517 8.03125V1.46875C27.3517 1.25119 27.2653 1.04254 27.1114 0.888701C26.9576 0.734863 26.749 0.648438 26.5314 0.648438ZM17.6037 23.166C16.3412 24.4268 14.7334 25.285 12.9833 25.6322C11.2333 25.9794 9.41959 25.8 7.77147 25.1167C6.12335 24.4334 4.71479 23.2768 3.72381 21.7932C2.73284 20.3095 2.20392 18.5654 2.20392 16.7812C2.20392 14.9971 2.73284 13.253 3.72381 11.7693C4.71479 10.2857 6.12335 9.12914 7.77147 8.44583C9.41959 7.76251 11.2333 7.58312 12.9833 7.93032C14.7334 8.27752 16.3412 9.13573 17.6037 10.3965C19.2918 12.0926 20.2395 14.3882 20.2395 16.7812C20.2395 19.1743 19.2918 21.4699 17.6037 23.166Z" fill="#AE8A2B"/>
</svg>
