<svg width="23" height="32" viewBox="0 0 23 32" fill="none" xmlns="http://www.w3.org/2000/svg">
<path d="M22.1641 11.1249C22.1659 9.0503 21.5626 7.02022 20.428 5.28336C19.2934 3.5465 17.6768 2.1783 15.7763 1.34638C13.8758 0.514464 11.7739 0.254953 9.72818 0.599645C7.68242 0.944337 5.78162 1.87826 4.25866 3.287C2.73569 4.69574 1.65671 6.51812 1.15389 8.53086C0.651077 10.5436 0.746267 12.6593 1.4278 14.6188C2.10933 16.5782 3.34761 18.2963 4.99093 19.5626C6.63424 20.8289 8.61123 21.5884 10.6797 21.7479V25.6171H6.03125C5.81369 25.6171 5.60504 25.7035 5.4512 25.8574C5.29736 26.0112 5.21093 26.2198 5.21093 26.4374C5.21093 26.655 5.29736 26.8636 5.4512 27.0175C5.60504 27.1713 5.81369 27.2577 6.03125 27.2577H10.6797V30.8124C10.6797 31.03 10.7661 31.2386 10.9199 31.3925C11.0738 31.5463 11.2824 31.6327 11.5 31.6327C11.7176 31.6327 11.9262 31.5463 12.08 31.3925C12.2339 31.2386 12.3203 31.03 12.3203 30.8124V27.2577H16.9687C17.1863 27.2577 17.395 27.1713 17.5488 27.0175C17.7026 26.8636 17.7891 26.655 17.7891 26.4374C17.7891 26.2198 17.7026 26.0112 17.5488 25.8574C17.395 25.7035 17.1863 25.6171 16.9687 25.6171H12.3203V21.7479C14.997 21.5414 17.4973 20.3329 19.3221 18.3637C21.1468 16.3945 22.1617 13.8096 22.1641 11.1249ZM2.47656 11.1249C2.47656 9.34024 3.00578 7.59565 3.99728 6.11175C4.98879 4.62785 6.39806 3.4713 8.04688 2.78833C9.69569 2.10537 11.51 1.92668 13.2604 2.27485C15.0108 2.62302 16.6186 3.48242 17.8805 4.74437C19.1425 6.00632 20.0019 7.61414 20.3501 9.36452C20.6982 11.1149 20.5195 12.9292 19.8366 14.578C19.1536 16.2268 17.997 17.6361 16.5132 18.6276C15.0293 19.6191 13.2847 20.1483 11.5 20.1483C9.10794 20.1447 6.8149 19.1929 5.12346 17.5014C3.43202 15.81 2.48018 13.517 2.47656 11.1249Z" fill="#AE8A2B"/>
</svg>
