<svg width="45" height="45" viewBox="0 0 45 45" fill="none" xmlns="http://www.w3.org/2000/svg">
<path d="M8.4375 36.5612V22.5" stroke="black" stroke-width="2" stroke-linecap="round" stroke-linejoin="round"/>
<path d="M36.5625 36.5625V22.4749" stroke="black" stroke-width="2" stroke-linecap="round" stroke-linejoin="round"/>
<path d="M5.625 2.81274H39.3748" stroke="black" stroke-width="2" stroke-linecap="round" stroke-linejoin="round"/>
<path d="M32.3437 17.5784C32.3437 18.4423 32.1163 19.2911 31.6843 20.0393C31.2523 20.7875 30.631 21.4088 29.8828 21.8408C29.1345 22.2728 28.2858 22.5002 27.4218 22.5002C26.5579 22.5002 25.7091 22.2728 24.9609 21.8408C24.2127 21.4088 23.5914 20.7875 23.1594 20.0393C22.7274 19.2911 22.5 18.4423 22.5 17.5784" stroke="black" stroke-width="2" stroke-linecap="round" stroke-linejoin="round"/>
<path d="M42.1874 17.5784C42.1874 18.4423 41.96 19.2911 41.528 20.0393C41.0961 20.7875 40.4747 21.4088 39.7265 21.8408C38.9783 22.2728 38.1296 22.5002 37.2656 22.5002C36.4016 22.5002 35.5529 22.2728 34.8047 21.8408C34.0565 21.4088 33.4351 20.7875 33.0032 20.0393C32.5712 19.2911 32.3437 18.4423 32.3438 17.5784" stroke="black" stroke-width="2" stroke-linecap="round" stroke-linejoin="round"/>
<path d="M12.6562 17.5784C12.6562 18.4423 12.4288 19.2911 11.9968 20.0393C11.5648 20.7875 10.9435 21.4088 10.1953 21.8408C9.44705 22.2728 8.59831 22.5002 7.73434 22.5002C6.87038 22.5002 6.02164 22.2728 5.27342 21.8408C4.52521 21.4088 3.90388 20.7875 3.4719 20.0393C3.03992 19.2911 2.8125 18.4423 2.8125 17.5784" stroke="black" stroke-width="2" stroke-linecap="round" stroke-linejoin="round"/>
<path d="M22.4999 17.5784C22.4999 18.4423 22.2725 19.2911 21.8405 20.0393C21.4086 20.7875 20.7872 21.4088 20.039 21.8408C19.2908 22.2728 18.4421 22.5002 17.5781 22.5002C16.7141 22.5002 15.8654 22.2728 15.1172 21.8408C14.369 21.4088 13.7476 20.7875 13.3157 20.0393C12.8837 19.2911 12.6562 18.4423 12.6563 17.5784" stroke="black" stroke-width="2" stroke-linecap="round" stroke-linejoin="round"/>
<path d="M2.8125 17.5787L5.62498 2.81274" stroke="black" stroke-width="2"/>
<path d="M39.375 2.81274L42.1875 17.5783" stroke="black" stroke-width="2"/>
<path d="M32.3437 17.5784L30.9375 2.81274" stroke="black" stroke-width="2"/>
<path d="M12.6562 17.5784L14.0625 2.81274" stroke="black" stroke-width="2"/>
<path d="M22.5 17.5784V2.81274" stroke="black" stroke-width="2"/>
<path d="M5.625 33.75H39.3748" stroke="black" stroke-width="2" stroke-linecap="round" stroke-linejoin="round"/>
<path d="M14.0625 42.1875H30.9374" stroke="black" stroke-width="2"/>
<path d="M36.5625 36.5625C36.5625 38.0543 35.9698 39.4851 34.915 40.54C33.8601 41.5948 32.4293 42.1875 30.9375 42.1875" stroke="black" stroke-width="2" stroke-linecap="round" stroke-linejoin="round"/>
<path d="M8.43754 36.5625C8.43754 38.0543 9.03017 39.4851 10.0851 40.5399C11.1399 41.5948 12.5707 42.1875 14.0625 42.1875" stroke="black" stroke-width="2" stroke-linecap="round" stroke-linejoin="round"/>
</svg>
