<svg width="43" height="39" viewBox="0 0 43 39" fill="none" xmlns="http://www.w3.org/2000/svg">
<path d="M26.7575 16.2082C26.5793 16.207 26.4078 16.2764 26.2805 16.4012C26.1532 16.5259 26.0804 16.696 26.078 16.8743V21.8512C26.0804 22.0299 26.1535 22.2003 26.2813 22.3251C26.409 22.45 26.5811 22.5191 26.7597 22.5173H41.7515C41.9301 22.5191 42.1022 22.45 42.23 22.3251C42.3578 22.2003 42.4309 22.0299 42.4332 21.8512V16.8743C42.4309 16.6956 42.3578 16.5252 42.23 16.4004C42.1022 16.2755 41.9301 16.2064 41.7515 16.2082H26.7575ZM35.951 0.37725C38.0255 0.47625 39.5173 0.88575 40.4622 1.75425C41.396 2.61375 41.8752 3.858 41.9697 5.505V10.2232C41.965 10.6251 41.801 11.0086 41.5137 11.2895C41.2264 11.5705 40.8393 11.726 40.4375 11.7218C40.2383 11.7241 40.0407 11.6873 39.8558 11.6132C39.6709 11.5392 39.5024 11.4295 39.3599 11.2903C39.2174 11.1512 39.1037 10.9853 39.0253 10.8022C38.9469 10.6191 38.9053 10.4224 38.903 10.2232L38.9053 5.5905C38.8558 4.7355 38.651 4.2045 38.3585 3.9345C38.075 3.6735 37.211 3.4395 35.8767 3.372H6.45575C5.2475 3.417 4.46225 3.6465 4.082 3.97275C3.7895 4.2225 3.569 4.911 3.56675 6.10125L3.56 32.5837C3.6725 33.7402 3.92675 34.512 4.253 34.8968C4.5005 35.1893 5.26775 35.4818 6.39725 35.6257H35.9083C37.2898 35.6527 38.1042 35.4458 38.3787 35.169C38.6825 34.8608 38.903 34.0508 38.903 32.7255V28.1243C38.903 27.2985 39.5892 26.6257 40.4375 26.6257C41.2835 26.6257 41.9697 27.2985 41.9697 28.1243V32.7255C41.9697 34.7505 41.5558 36.2648 40.586 37.248C39.587 38.2605 37.9985 38.6655 35.8767 38.6205L6.215 38.6138C4.19675 38.3798 2.75 37.8262 1.88825 36.807C1.1075 35.8845 0.67325 34.5682 0.5 32.7277V6.099C0.5045 4.128 0.977 2.64525 2.0615 1.71825C3.056 0.86325 4.4915 0.447 6.39725 0.375H35.951V0.37725ZM41.7515 13.2113C43.8215 13.2113 45.5 14.8515 45.5 16.8743V21.8512C45.5 23.874 43.8215 25.5143 41.7515 25.5143H26.7597C24.6897 25.5143 23.0112 23.8717 23.0112 21.8512V16.8743C23.0112 14.8515 24.6897 13.2113 26.7597 13.2113H41.7515ZM30.5082 17.5763C29.4732 17.5763 28.634 18.3862 28.634 19.383C28.634 20.382 29.4732 21.1898 30.5082 21.1898C31.5432 21.1898 32.3825 20.3797 32.3825 19.383C32.3825 18.384 31.5432 17.574 30.5082 17.574V17.5763Z" fill="black"/>
</svg>
