<svg width="8" height="14" viewBox="0 0 8 14" fill="none" xmlns="http://www.w3.org/2000/svg">
<path d="M1.91679 0.933072L7.53345 6.53307C7.60012 6.59974 7.64745 6.67196 7.67545 6.74974C7.70345 6.82752 7.71723 6.91085 7.71679 6.99974C7.71679 7.08863 7.70301 7.17196 7.67545 7.24974C7.6479 7.32752 7.60057 7.39974 7.53345 7.46641L1.91679 13.0831C1.76123 13.2386 1.56679 13.3164 1.33345 13.3164C1.10012 13.3164 0.90012 13.2331 0.733454 13.0664C0.566787 12.8997 0.483454 12.7053 0.483454 12.4831C0.483454 12.2609 0.566787 12.0664 0.733454 11.8997L5.63345 6.99974L0.733455 2.09974C0.577899 1.94418 0.500121 1.75241 0.500121 1.52441C0.500121 1.29641 0.583454 1.09929 0.750121 0.933071C0.916788 0.766405 1.11123 0.683072 1.33345 0.683072C1.55568 0.683072 1.75012 0.766405 1.91679 0.933072Z" fill="white"/>
</svg>
