<svg width="28" height="39" viewBox="0 0 28 39" fill="none" xmlns="http://www.w3.org/2000/svg">
<path d="M27.7102 19.5C27.7102 17.3249 27.1919 15.1811 26.1985 13.2461C25.205 11.3112 23.7649 9.6407 21.9973 8.37305L20.8724 2.18555C20.7693 1.61761 20.4698 1.10398 20.0264 0.734456C19.583 0.364932 19.0238 0.163035 18.4466 0.164066H9.55204C8.97482 0.163035 8.41562 0.364932 7.97219 0.734456C7.52876 1.10398 7.22933 1.61761 7.12626 2.18555L6.00126 8.37305C4.23386 9.64077 2.79387 11.3113 1.80053 13.2462C0.807185 15.1812 0.289063 17.325 0.289062 19.5C0.289063 21.675 0.807185 23.8188 1.80053 25.7538C2.79387 27.6887 4.23386 29.3592 6.00126 30.627L7.12626 36.8145C7.22933 37.3824 7.52876 37.896 7.97219 38.2656C8.41562 38.6351 8.97482 38.837 9.55204 38.8359H18.4466C19.0238 38.837 19.583 38.6351 20.0264 38.2656C20.4698 37.896 20.7693 37.3824 20.8724 36.8145L21.9973 30.627C23.7649 29.3593 25.205 27.6888 26.1985 25.7539C27.1919 23.8189 27.7102 21.6751 27.7102 19.5ZM9.20047 2.55469C9.21691 2.47409 9.26109 2.4018 9.32533 2.35041C9.38957 2.29902 9.46979 2.27178 9.55204 2.27344H18.4466C18.5288 2.27178 18.609 2.29902 18.6733 2.35041C18.7375 2.4018 18.7817 2.47409 18.7981 2.55469L19.6067 6.98438C17.8424 6.19609 15.9317 5.78866 13.9993 5.78866C12.0669 5.78866 10.1562 6.19609 8.39188 6.98438L9.20047 2.55469ZM18.7981 36.4453C18.7817 36.5259 18.7375 36.5982 18.6733 36.6496C18.609 36.701 18.5288 36.7282 18.4466 36.7266H9.55204C9.46979 36.7282 9.38957 36.701 9.32533 36.6496C9.26109 36.5982 9.21691 36.5259 9.20047 36.4453L8.39188 32.0156C10.1562 32.8039 12.0669 33.2113 13.9993 33.2113C15.9317 33.2113 17.8424 32.8039 19.6067 32.0156L18.7981 36.4453ZM13.9993 31.1016C11.7047 31.1016 9.46169 30.4211 7.55382 29.1464C5.64595 27.8716 4.15895 26.0596 3.28086 23.9397C2.40276 21.8198 2.17301 19.4871 2.62066 17.2367C3.06831 14.9862 4.17325 12.919 5.79576 11.2965C7.41827 9.67395 9.48547 8.56901 11.736 8.12136C13.9864 7.67371 16.3191 7.90346 18.439 8.78156C20.5589 9.65965 22.3709 11.1467 23.6457 13.0545C24.9204 14.9624 25.6009 17.2054 25.6009 19.5C25.5962 22.5755 24.3724 25.5237 22.1977 27.6984C20.023 29.8731 17.0748 31.0969 13.9993 31.1016ZM22.0852 19.5C22.0852 19.7797 21.9741 20.048 21.7763 20.2458C21.5785 20.4436 21.3103 20.5547 21.0306 20.5547H13.9993C13.7196 20.5547 13.4513 20.4436 13.2535 20.2458C13.0557 20.048 12.9446 19.7797 12.9446 19.5V12.4688C12.9446 12.189 13.0557 11.9208 13.2535 11.723C13.4513 11.5252 13.7196 11.4141 13.9993 11.4141C14.279 11.4141 14.5473 11.5252 14.7451 11.723C14.9429 11.9208 15.054 12.189 15.054 12.4688V18.4453H21.0306C21.3103 18.4453 21.5785 18.5564 21.7763 18.7542C21.9741 18.952 22.0852 19.2203 22.0852 19.5Z" fill="black"/>
</svg>
