<svg width="36" height="35" viewBox="0 0 36 35" fill="none" xmlns="http://www.w3.org/2000/svg">
<path d="M26.1673 16.0002C28.5985 16.0002 30.93 16.966 32.6491 18.6851C34.3682 20.4041 35.334 22.7357 35.334 25.1669C35.334 27.598 34.3682 29.9296 32.6491 31.6487C30.93 33.3678 28.5985 34.3335 26.1673 34.3335C23.7362 34.3335 21.4046 33.3678 19.6855 31.6487C17.9664 29.9296 17.0007 27.598 17.0007 25.1669C17.0007 22.7357 17.9664 20.4041 19.6855 18.6851C21.4046 16.966 23.7362 16.0002 26.1673 16.0002ZM26.1673 19.3335L26.0173 19.3469C25.8508 19.3773 25.6975 19.4577 25.5778 19.5774C25.4581 19.6971 25.3777 19.8504 25.3473 20.0169L25.334 20.1669V24.3335H21.164L21.014 24.3485C20.8475 24.379 20.6942 24.4594 20.5745 24.5791C20.4548 24.6987 20.3744 24.852 20.344 25.0185L20.3307 25.1685L20.344 25.3185C20.3744 25.485 20.4548 25.6383 20.5745 25.758C20.6942 25.8777 20.8475 25.9581 21.014 25.9885L21.164 26.0019H25.334V30.1735L25.3473 30.3235C25.3777 30.49 25.4581 30.6433 25.5778 30.763C25.6975 30.8827 25.8508 30.9631 26.0173 30.9935L26.1673 31.0069L26.3173 30.9935C26.4838 30.9631 26.6371 30.8827 26.7568 30.763C26.8765 30.6433 26.9569 30.49 26.9873 30.3235L27.0007 30.1735V26.0002H31.174L31.324 25.9885C31.4905 25.9581 31.6438 25.8777 31.7635 25.758C31.8832 25.6383 31.9636 25.485 31.994 25.3185L32.0073 25.1685L31.994 25.0185C31.9635 24.8518 31.8828 24.6983 31.7628 24.5786C31.6428 24.4589 31.4891 24.3787 31.3223 24.3485L31.1723 24.3352H27.0007V20.1685L26.9873 20.0185C26.9572 19.8517 26.8769 19.6981 26.7572 19.5781C26.6375 19.458 26.4841 19.3774 26.3173 19.3469L26.1673 19.3335ZM20.209 0.173542C20.8624 0.173489 21.5045 0.344166 22.0716 0.668663C22.6388 0.993159 23.1113 1.46021 23.4423 2.02354L24.799 4.33521H28.2507C29.687 4.33521 31.0644 4.90566 32.0802 5.92112C33.096 6.93659 33.6669 8.31391 33.6673 9.75021V17.3502C32.9239 16.6364 32.0827 16.032 31.169 15.5552L31.1673 9.75021C31.1673 8.97666 30.86 8.2348 30.313 7.68781C29.7661 7.14083 29.0242 6.83354 28.2507 6.83354H24.084C23.8661 6.83366 23.6519 6.77681 23.4628 6.66864C23.2736 6.56047 23.1161 6.40473 23.0056 6.21688L21.2857 3.28854C21.1754 3.10093 21.0181 2.94535 20.8292 2.83719C20.6404 2.72904 20.4266 2.67205 20.209 2.67187H13.8707C13.6883 2.67202 13.5081 2.71208 13.3428 2.78925C13.1776 2.86641 13.0312 2.9788 12.914 3.11854L12.8057 3.26854L10.984 6.23688C10.8723 6.41908 10.7157 6.5696 10.5293 6.67406C10.3428 6.77852 10.1327 6.83343 9.91898 6.83354H5.75232C5.36915 6.83332 4.9897 6.9086 4.63565 7.05508C4.28159 7.20156 3.95986 7.41637 3.68885 7.68722C3.41783 7.95808 3.20284 8.27969 3.05616 8.63366C2.90948 8.98764 2.83398 9.36705 2.83398 9.75021V25.5835C2.83398 27.1935 4.14065 28.5002 5.75065 28.5002H15.8556C16.144 29.3885 16.5423 30.2285 17.0373 31.0002H5.75065C4.31406 31.0002 2.93631 30.4295 1.92049 29.4137C0.904667 28.3979 0.333984 27.0201 0.333984 25.5835V9.75021C0.333984 8.31362 0.904667 6.93587 1.92049 5.92005C2.93631 4.90422 4.31406 4.33354 5.75065 4.33354H9.21732L10.6757 1.96021C11.011 1.41391 11.4807 0.962678 12.0401 0.649599C12.5994 0.33652 13.2297 0.172045 13.8707 0.171875L20.209 0.173542ZM17.0007 9.33354C18.5862 9.33343 20.1311 9.83562 21.4136 10.768C22.696 11.7005 23.6501 13.0152 24.139 14.5235C23.3057 14.6819 22.5057 14.9352 21.7507 15.2719C21.3813 14.1401 20.6201 13.1774 19.6041 12.5569C18.5881 11.9364 17.384 11.6989 16.2085 11.8872C15.0329 12.0755 13.9632 12.6772 13.1919 13.5839C12.4205 14.4907 11.9981 15.643 12.0007 16.8335C12.0007 19.2169 13.6673 21.2085 15.8973 21.7119C15.6306 22.504 15.4572 23.3246 15.3807 24.1569C13.5805 23.7534 11.9921 22.7006 10.9191 21.1999C9.8461 19.6992 9.36373 17.8557 9.56418 16.0218C9.76463 14.1878 10.6338 12.4921 12.0057 11.2586C13.3775 10.0251 15.1558 9.34032 17.0007 9.33521V9.33354Z" fill="black"/>
</svg>
