<svg width="22" height="21" viewBox="0 0 22 21" fill="none" xmlns="http://www.w3.org/2000/svg">
<path d="M15.5879 18.5L15.5879 7.5M15.5879 5.5L15.5879 2.5M5.58789 18.5L5.58789 7.5M5.58789 5.5L5.58789 2.5M10.5879 13.5L10.5879 2.5M10.5879 18.5L10.5879 15.5M17.5879 6.5C17.5879 6.76522 17.4825 7.01957 17.295 7.20711C17.1075 7.39464 16.8531 7.5 16.5879 7.5L14.5879 7.5C14.3227 7.5 14.0683 7.39464 13.8808 7.20711C13.6932 7.01957 13.5879 6.76522 13.5879 6.5C13.5879 6.23478 13.6932 5.98043 13.8808 5.79289C14.0683 5.60536 14.3227 5.5 14.5879 5.5L16.5879 5.5C16.8531 5.5 17.1075 5.60536 17.295 5.79289C17.4825 5.98043 17.5879 6.23478 17.5879 6.5ZM7.58789 6.5C7.58789 6.76522 7.48253 7.01957 7.295 7.20711C7.10746 7.39464 6.85311 7.5 6.58789 7.5L4.58789 7.5C4.32267 7.5 4.06832 7.39464 3.88078 7.20711C3.69325 7.01957 3.58789 6.76522 3.58789 6.5C3.58789 6.23478 3.69325 5.98043 3.88078 5.79289C4.06832 5.60536 4.32267 5.5 4.58789 5.5L6.58789 5.5C6.85311 5.5 7.10746 5.60536 7.295 5.79289C7.48253 5.98043 7.58789 6.23478 7.58789 6.5ZM12.5879 14.5C12.5879 14.7652 12.4825 15.0196 12.295 15.2071C12.1075 15.3946 11.8531 15.5 11.5879 15.5L9.58789 15.5C9.32267 15.5 9.06832 15.3946 8.88078 15.2071C8.69325 15.0196 8.58789 14.7652 8.58789 14.5C8.58789 14.2348 8.69325 13.9804 8.88078 13.7929C9.06832 13.6054 9.32267 13.5 9.58789 13.5L11.5879 13.5C11.8531 13.5 12.1075 13.6054 12.295 13.7929C12.4825 13.9804 12.5879 14.2348 12.5879 14.5Z" stroke="#3E2020" stroke-linecap="round" stroke-linejoin="round"/>
</svg>
