<svg width="45" height="45" viewBox="0 0 45 45" fill="none" xmlns="http://www.w3.org/2000/svg">
<path d="M8.4375 36.5612V22.5" stroke="black" stroke-width="2" stroke-linecap="round" stroke-linejoin="round"/>
<path d="M36.5625 36.5623V22.4746" stroke="black" stroke-width="2" stroke-linecap="round" stroke-linejoin="round"/>
<path d="M5.625 2.8125H39.3748" stroke="black" stroke-width="2" stroke-linecap="round" stroke-linejoin="round"/>
<path d="M32.3437 17.5781C32.3437 18.4421 32.1163 19.2908 31.6843 20.039C31.2523 20.7873 30.631 21.4086 29.8828 21.8406C29.1345 22.2725 28.2858 22.5 27.4218 22.5C26.5579 22.5 25.7091 22.2725 24.9609 21.8406C24.2127 21.4086 23.5914 20.7873 23.1594 20.039C22.7274 19.2908 22.5 18.4421 22.5 17.5781" stroke="black" stroke-width="2" stroke-linecap="round" stroke-linejoin="round"/>
<path d="M42.1874 17.5781C42.1874 18.4421 41.96 19.2908 41.528 20.039C41.0961 20.7873 40.4747 21.4086 39.7265 21.8406C38.9783 22.2725 38.1296 22.5 37.2656 22.5C36.4016 22.5 35.5529 22.2725 34.8047 21.8406C34.0565 21.4086 33.4351 20.7873 33.0032 20.039C32.5712 19.2908 32.3437 18.4421 32.3438 17.5781" stroke="black" stroke-width="2" stroke-linecap="round" stroke-linejoin="round"/>
<path d="M12.6562 17.5781C12.6562 18.4421 12.4288 19.2908 11.9968 20.039C11.5648 20.7873 10.9435 21.4086 10.1953 21.8406C9.44705 22.2725 8.59831 22.5 7.73434 22.5C6.87038 22.5 6.02164 22.2725 5.27342 21.8406C4.52521 21.4086 3.90388 20.7873 3.4719 20.039C3.03992 19.2908 2.8125 18.4421 2.8125 17.5781" stroke="black" stroke-width="2" stroke-linecap="round" stroke-linejoin="round"/>
<path d="M22.4999 17.5781C22.4999 18.4421 22.2725 19.2908 21.8405 20.039C21.4086 20.7873 20.7872 21.4086 20.039 21.8406C19.2908 22.2725 18.4421 22.5 17.5781 22.5C16.7141 22.5 15.8654 22.2725 15.1172 21.8406C14.369 21.4086 13.7476 20.7873 13.3157 20.039C12.8837 19.2908 12.6562 18.4421 12.6563 17.5781" stroke="black" stroke-width="2" stroke-linecap="round" stroke-linejoin="round"/>
<path d="M2.8125 17.5784L5.62498 2.8125" stroke="black" stroke-width="2"/>
<path d="M39.375 2.8125L42.1875 17.578" stroke="black" stroke-width="2"/>
<path d="M32.3437 17.5782L30.9375 2.8125" stroke="black" stroke-width="2"/>
<path d="M12.6562 17.5781L14.0625 2.8125" stroke="black" stroke-width="2"/>
<path d="M22.5 17.5782V2.8125" stroke="black" stroke-width="2"/>
<path d="M5.625 33.7498H39.3748" stroke="black" stroke-width="2" stroke-linecap="round" stroke-linejoin="round"/>
<path d="M14.0625 42.1873H30.9374" stroke="black" stroke-width="2"/>
<path d="M36.5625 36.5623C36.5625 38.0541 35.9698 39.4848 34.915 40.5397C33.8601 41.5946 32.4293 42.1872 30.9375 42.1872" stroke="black" stroke-width="2" stroke-linecap="round" stroke-linejoin="round"/>
<path d="M8.43754 36.5623C8.43754 38.0541 9.03017 39.4848 10.0851 40.5397C11.1399 41.5946 12.5707 42.1872 14.0625 42.1872" stroke="black" stroke-width="2" stroke-linecap="round" stroke-linejoin="round"/>
</svg>
