<svg width="15" height="15" viewBox="0 0 15 15" fill="none" xmlns="http://www.w3.org/2000/svg">
<path d="M12.8906 7.79601C12.8906 7.85817 12.8659 7.91778 12.822 7.96174C12.778 8.00569 12.7184 8.03038 12.6562 8.03038H2.34375C2.28159 8.03038 2.22198 8.00569 2.17802 7.96174C2.13407 7.91778 2.10938 7.85817 2.10938 7.79601C2.10938 7.73385 2.13407 7.67423 2.17802 7.63028C2.22198 7.58633 2.28159 7.56163 2.34375 7.56163H12.6562C12.7184 7.56163 12.778 7.58633 12.822 7.63028C12.8659 7.67423 12.8906 7.73385 12.8906 7.79601ZM5.78906 3.27257L7.26562 1.80187V5.92101C7.26562 5.98317 7.29032 6.04278 7.33427 6.08674C7.37823 6.13069 7.43784 6.15538 7.5 6.15538C7.56216 6.15538 7.62177 6.13069 7.66573 6.08674C7.70968 6.04278 7.73438 5.98317 7.73438 5.92101V1.80187L9.21094 3.27257C9.23224 3.29454 9.25774 3.31201 9.28592 3.32394C9.3141 3.33587 9.3444 3.34202 9.375 3.34202C9.4056 3.34202 9.4359 3.33587 9.46408 3.32394C9.49226 3.31201 9.51776 3.29454 9.53906 3.27257C9.56103 3.25127 9.5785 3.22577 9.59043 3.19759C9.60236 3.1694 9.60851 3.13911 9.60851 3.10851C9.60851 3.07791 9.60236 3.04761 9.59043 3.01943C9.5785 2.99125 9.56103 2.96575 9.53906 2.94445L7.66406 1.06945C7.64276 1.04748 7.61726 1.03001 7.58908 1.01808C7.5609 1.00615 7.5306 1 7.5 1C7.4694 1 7.43911 1.00615 7.41092 1.01808C7.38274 1.03001 7.35724 1.04748 7.33594 1.06945L5.46094 2.94445C5.42709 2.98958 5.41065 3.04541 5.41465 3.10169C5.41865 3.15796 5.44282 3.21091 5.48271 3.2508C5.5226 3.29069 5.57555 3.31486 5.63182 3.31886C5.6881 3.32286 5.74393 3.30642 5.78906 3.27257ZM9.21094 12.3194L7.73438 13.7902V9.67101C7.73438 9.60885 7.70968 9.54924 7.66573 9.50528C7.62177 9.46133 7.56216 9.43663 7.5 9.43663C7.43784 9.43663 7.37823 9.46133 7.33427 9.50528C7.29032 9.54924 7.26562 9.60885 7.26562 9.67101V13.7902L5.78906 12.3194C5.74393 12.2856 5.6881 12.2692 5.63182 12.2732C5.57555 12.2772 5.5226 12.3013 5.48271 12.3412C5.44282 12.3811 5.41865 12.4341 5.41465 12.4903C5.41065 12.5466 5.42709 12.6024 5.46094 12.6476L7.33594 14.5226C7.35724 14.5445 7.38274 14.562 7.41092 14.5739C7.43911 14.5859 7.4694 14.592 7.5 14.592C7.5306 14.592 7.5609 14.5859 7.58908 14.5739C7.61726 14.562 7.64276 14.5445 7.66406 14.5226L9.53906 12.6476C9.57291 12.6024 9.58935 12.5466 9.58535 12.4903C9.58135 12.4341 9.55718 12.3811 9.51729 12.3412C9.4774 12.3013 9.42445 12.2772 9.36818 12.2732C9.3119 12.2692 9.25607 12.2856 9.21094 12.3194Z" fill="black"/>
</svg>
