<svg width="46" height="45" viewBox="0 0 46 45" fill="none" xmlns="http://www.w3.org/2000/svg">
<path d="M36.7112 22.5C36.7111 20.3249 36.1929 18.1811 35.1994 16.2461C34.206 14.3112 32.7659 12.6407 30.9983 11.3731L29.8733 5.18555C29.7703 4.61761 29.4708 4.10398 29.0274 3.73446C28.584 3.36493 28.0248 3.16303 27.4475 3.16407H18.553C17.9758 3.16303 17.4166 3.36493 16.9732 3.73446C16.5297 4.10398 16.2303 4.61761 16.1272 5.18555L15.0022 11.3731C13.2348 12.6408 11.7948 14.3113 10.8015 16.2462C9.80816 18.1812 9.29004 20.325 9.29004 22.5C9.29004 24.675 9.80816 26.8188 10.8015 28.7538C11.7948 30.6887 13.2348 32.3592 15.0022 33.627L16.1272 39.8145C16.2303 40.3824 16.5297 40.896 16.9732 41.2656C17.4166 41.6351 17.9758 41.837 18.553 41.8359H27.4475C28.0248 41.837 28.584 41.6351 29.0274 41.2656C29.4708 40.896 29.7703 40.3824 29.8733 39.8145L30.9983 33.627C32.7659 32.3593 34.206 30.6888 35.1994 28.7539C36.1929 26.8189 36.7111 24.6751 36.7112 22.5ZM18.2015 5.55469C18.2179 5.47409 18.2621 5.4018 18.3263 5.35041C18.3905 5.29902 18.4708 5.27178 18.553 5.27344H27.4475C27.5298 5.27178 27.61 5.29902 27.6743 5.35041C27.7385 5.4018 27.7827 5.47409 27.7991 5.55469L28.6077 9.98438C26.8434 9.19609 24.9327 8.78866 23.0003 8.78866C21.0679 8.78866 19.1572 9.19609 17.3929 9.98438L18.2015 5.55469ZM27.7991 39.4453C27.7827 39.5259 27.7385 39.5982 27.6743 39.6496C27.61 39.701 27.5298 39.7282 27.4475 39.7266H18.553C18.4708 39.7282 18.3905 39.701 18.3263 39.6496C18.2621 39.5982 18.2179 39.5259 18.2015 39.4453L17.3929 35.0156C19.1572 35.8039 21.0679 36.2113 23.0003 36.2113C24.9327 36.2113 26.8434 35.8039 28.6077 35.0156L27.7991 39.4453ZM23.0003 34.1016C20.7057 34.1016 18.4627 33.4211 16.5548 32.1464C14.6469 30.8716 13.1599 29.0596 12.2818 26.9397C11.4037 24.8198 11.174 22.4871 11.6216 20.2367C12.0693 17.9862 13.1742 15.919 14.7967 14.2965C16.4192 12.674 18.4864 11.569 20.7369 11.1214C22.9874 10.6737 25.3201 10.9035 27.44 11.7816C29.5599 12.6597 31.3718 14.1467 32.6466 16.0545C33.9214 17.9624 34.6018 20.2054 34.6018 22.5C34.5972 25.5755 33.3734 28.5237 31.1987 30.6984C29.024 32.8731 26.0758 34.0969 23.0003 34.1016ZM31.0862 22.5C31.0862 22.7797 30.9751 23.048 30.7773 23.2458C30.5795 23.4436 30.3112 23.5547 30.0315 23.5547H23.0003C22.7206 23.5547 22.4523 23.4436 22.2545 23.2458C22.0567 23.048 21.9456 22.7797 21.9456 22.5V15.4688C21.9456 15.189 22.0567 14.9208 22.2545 14.723C22.4523 14.5252 22.7206 14.4141 23.0003 14.4141C23.28 14.4141 23.5483 14.5252 23.7461 14.723C23.9438 14.9208 24.055 15.189 24.055 15.4688V21.4453H30.0315C30.3112 21.4453 30.5795 21.5564 30.7773 21.7542C30.9751 21.952 31.0862 22.2203 31.0862 22.5Z" fill="black"/>
</svg>
