<svg width="46" height="45" viewBox="0 0 46 45" fill="none" xmlns="http://www.w3.org/2000/svg">
<g clip-path="url(#clip0_0_1522)">
<path d="M29.7575 19.2082C29.5793 19.207 29.4078 19.2764 29.2805 19.4012C29.1532 19.5259 29.0804 19.696 29.078 19.8743V24.8512C29.0804 25.0299 29.1535 25.2003 29.2813 25.3251C29.409 25.45 29.5811 25.5191 29.7597 25.5173H44.7515C44.9301 25.5191 45.1022 25.45 45.23 25.3251C45.3578 25.2003 45.4309 25.0299 45.4332 24.8512V19.8743C45.4309 19.6956 45.3578 19.5252 45.23 19.4004C45.1022 19.2755 44.9301 19.2064 44.7515 19.2082H29.7575ZM38.951 3.37725C41.0255 3.47625 42.5173 3.88575 43.4622 4.75425C44.396 5.61375 44.8752 6.858 44.9697 8.505V13.2232C44.965 13.6251 44.801 14.0086 44.5137 14.2895C44.2264 14.5705 43.8393 14.726 43.4375 14.7218C43.2383 14.7241 43.0407 14.6873 42.8558 14.6132C42.6709 14.5392 42.5024 14.4295 42.3599 14.2903C42.2174 14.1512 42.1037 13.9853 42.0253 13.8022C41.9469 13.6191 41.9053 13.4224 41.903 13.2232L41.9053 8.5905C41.8558 7.7355 41.651 7.2045 41.3585 6.9345C41.075 6.6735 40.211 6.4395 38.8767 6.372H9.45575C8.2475 6.417 7.46225 6.6465 7.082 6.97275C6.7895 7.2225 6.569 7.911 6.56675 9.10125L6.56 35.5837C6.6725 36.7402 6.92675 37.512 7.253 37.8968C7.5005 38.1893 8.26775 38.4818 9.39725 38.6257H38.9083C40.2898 38.6527 41.1042 38.4458 41.3787 38.169C41.6825 37.8608 41.903 37.0508 41.903 35.7255V31.1243C41.903 30.2985 42.5892 29.6257 43.4375 29.6257C44.2835 29.6257 44.9697 30.2985 44.9697 31.1243V35.7255C44.9697 37.7505 44.5558 39.2648 43.586 40.248C42.587 41.2605 40.9985 41.6655 38.8767 41.6205L9.215 41.6138C7.19675 41.3798 5.75 40.8262 4.88825 39.807C4.1075 38.8845 3.67325 37.5682 3.5 35.7277V9.099C3.5045 7.128 3.977 5.64525 5.0615 4.71825C6.056 3.86325 7.4915 3.447 9.39725 3.375H38.951V3.37725ZM44.7515 16.2113C46.8215 16.2113 48.5 17.8515 48.5 19.8743V24.8512C48.5 26.874 46.8215 28.5143 44.7515 28.5143H29.7597C27.6897 28.5143 26.0112 26.8717 26.0112 24.8512V19.8743C26.0112 17.8515 27.6897 16.2113 29.7597 16.2113H44.7515ZM33.5082 20.5763C32.4732 20.5763 31.634 21.3862 31.634 22.383C31.634 23.382 32.4732 24.1898 33.5082 24.1898C34.5432 24.1898 35.3825 23.3797 35.3825 22.383C35.3825 21.384 34.5432 20.574 33.5082 20.574V20.5763Z" fill="black"/>
</g>
<defs>
<clipPath id="clip0_0_1522">
<rect width="45" height="45" fill="white" transform="translate(0.5)"/>
</clipPath>
</defs>
</svg>
