<svg width="20" height="21" viewBox="0 0 20 21" fill="none" xmlns="http://www.w3.org/2000/svg">
<path d="M15 13.625H16.25V16.75H15V13.625ZM12.5 10.5H13.75V16.75H12.5V10.5ZM6.875 16.75C6.0465 16.749 5.25222 16.4194 4.66639 15.8336C4.08055 15.2478 3.75099 14.4535 3.75 13.625H5C5 13.9958 5.10997 14.3584 5.31599 14.6667C5.52202 14.975 5.81486 15.2154 6.15747 15.3573C6.50008 15.4992 6.87708 15.5363 7.24079 15.464C7.60451 15.3916 7.9386 15.213 8.20083 14.9508C8.46305 14.6886 8.64163 14.3545 8.71397 13.9908C8.78632 13.6271 8.74919 13.2501 8.60727 12.9075C8.46536 12.5649 8.22504 12.272 7.91669 12.066C7.60835 11.86 7.24584 11.75 6.875 11.75V10.5C7.7038 10.5 8.49866 10.8292 9.08471 11.4153C9.67076 12.0013 10 12.7962 10 13.625C10 14.4538 9.67076 15.2487 9.08471 15.8347C8.49866 16.4208 7.7038 16.75 6.875 16.75Z" fill="black"/>
<path d="M17.5 1.75H2.5C2.16858 1.75033 1.85083 1.88213 1.61648 2.11648C1.38213 2.35083 1.25033 2.66858 1.25 3V18C1.25033 18.3314 1.38213 18.6492 1.61648 18.8835C1.85083 19.1179 2.16858 19.2497 2.5 19.25H17.5C17.8314 19.2495 18.149 19.1176 18.3833 18.8833C18.6176 18.649 18.7495 18.3314 18.75 18V3C18.7497 2.66858 18.6179 2.35083 18.3835 2.11648C18.1492 1.88213 17.8314 1.75033 17.5 1.75ZM17.5 7.375H8.75V3H17.5V7.375ZM7.5 3V7.375H2.5V3H7.5ZM2.5 18V8.625H17.5L17.5013 18H2.5Z" fill="black"/>
</svg>
