<svg width="24" height="24" viewBox="0 0 24 24" fill="none" xmlns="http://www.w3.org/2000/svg">
<path d="M17.6175 6.38294C18.4887 7.25159 19.1462 8.31072 19.5383 9.47683C19.9303 10.6429 20.0462 11.8842 19.8767 13.1027C19.7072 14.3212 19.257 15.4838 18.5616 16.4986C17.8663 17.5135 16.9447 18.353 15.8695 18.9509C14.7985 19.5296 13.6099 19.8572 12.3937 19.9088C11.1775 19.9604 9.96543 19.7348 8.84925 19.249C7.73308 18.7631 6.742 18.0298 5.951 17.1045C5.16 16.1792 4.58978 15.0861 4.28349 13.9079C3.96459 12.5802 3.98962 11.1931 4.35621 9.87776C4.7228 8.56242 5.41883 7.36231 6.37849 6.39094C6.82949 5.93094 6.12249 5.22294 5.67149 5.68394C4.20886 7.14815 3.29915 9.0742 3.09734 11.1339C2.89552 13.1937 3.4141 15.2597 4.56472 16.9799C5.71533 18.7002 7.4268 19.9683 9.40754 20.5682C11.3883 21.1681 13.5158 21.0627 15.4275 20.2699C16.7871 19.7069 17.9868 18.8171 18.9203 17.6795C19.8538 16.5419 20.4923 15.1916 20.7791 13.7482C21.0659 12.3049 20.9922 10.813 20.5646 9.40495C20.1369 7.99687 19.3685 6.71602 18.3275 5.67594C17.8765 5.21494 17.1695 5.92294 17.6205 6.38294H17.6175Z" fill="black"/>
<path d="M15.3551 10.5999L12.3551 13.5999C12.2628 13.6941 12.137 13.7481 12.0051 13.7499C11.9382 13.7499 11.8719 13.7366 11.8101 13.7109C11.7483 13.6851 11.6923 13.6474 11.6451 13.5999L8.64509 10.5999C8.55094 10.5058 8.49805 10.3781 8.49805 10.2449C8.49805 10.1118 8.55094 9.98408 8.64509 9.88993C8.73924 9.79578 8.86694 9.74289 9.00009 9.74289C9.13324 9.74289 9.26094 9.79578 9.35509 9.88993L11.4951 12.0299V3.55493C11.4972 3.42297 11.5505 3.29698 11.6438 3.20366C11.7371 3.11033 11.8631 3.05699 11.9951 3.05493C12.1277 3.05493 12.2549 3.10761 12.3486 3.20138C12.4424 3.29515 12.4951 3.42232 12.4951 3.55493V12.0449L14.6451 9.88493C14.6917 9.83831 14.7471 9.80133 14.808 9.7761C14.8689 9.75087 14.9342 9.73789 15.0001 9.73789C15.066 9.73789 15.1313 9.75087 15.1922 9.7761C15.2531 9.80133 15.3085 9.83831 15.3551 9.88493C15.4017 9.93155 15.4387 9.9869 15.4639 10.0478C15.4892 10.1087 15.5021 10.174 15.5021 10.2399C15.5021 10.3059 15.4892 10.3711 15.4639 10.4321C15.4387 10.493 15.4017 10.5483 15.3551 10.5949V10.5999Z" fill="black"/>
</svg>
