<svg width="20" height="21" viewBox="0 0 20 21" fill="none" xmlns="http://www.w3.org/2000/svg">
<path d="M2.5 4.875V14.875C2.5 15.2065 2.6317 15.5245 2.86612 15.7589C3.10054 15.9933 3.41848 16.125 3.75 16.125H16.25C16.5815 16.125 16.8995 15.9933 17.1339 15.7589C17.3683 15.5245 17.5 15.2065 17.5 14.875V4.875H2.5ZM2.5 3.625H17.5C17.8315 3.625 18.1495 3.7567 18.3839 3.99112C18.6183 4.22554 18.75 4.54348 18.75 4.875V14.875C18.75 15.538 18.4866 16.1739 18.0178 16.6428C17.5489 17.1116 16.913 17.375 16.25 17.375H3.75C3.08696 17.375 2.45107 17.1116 1.98223 16.6428C1.51339 16.1739 1.25 15.538 1.25 14.875V4.875C1.25 4.54348 1.3817 4.22554 1.61612 3.99112C1.85054 3.7567 2.16848 3.625 2.5 3.625Z" fill="black"/>
<path d="M17.6562 4.875L12.8225 10.4C12.4705 10.8024 12.0366 11.1248 11.5498 11.3458C11.063 11.5667 10.5346 11.681 10 11.681C9.46541 11.681 8.937 11.5667 8.45021 11.3458C7.96341 11.1248 7.52947 10.8024 7.1775 10.4L2.34375 4.875H17.6562ZM4.005 4.875L8.1175 9.57625C8.35215 9.84456 8.64146 10.0596 8.96603 10.2069C9.29061 10.3543 9.64293 10.4305 9.99937 10.4305C10.3558 10.4305 10.7081 10.3543 11.0327 10.2069C11.3573 10.0596 11.6466 9.84456 11.8813 9.57625L15.995 4.875H4.005Z" fill="black"/>
</svg>
