<svg width="20" height="21" viewBox="0 0 20 21" fill="none" xmlns="http://www.w3.org/2000/svg">
<path d="M11.8743 18.3334C11.5549 18.6529 11.1591 18.8126 10.6868 18.8126C10.2146 18.8126 9.81879 18.6529 9.49935 18.3334L2.16602 11.0001C2.01324 10.8473 1.89185 10.6667 1.80185 10.4584C1.71129 10.2501 1.66602 10.0279 1.66602 9.79175V3.83341C1.66602 3.37508 1.82935 2.98258 2.15602 2.65591C2.48213 2.3298 2.87435 2.16675 3.33268 2.16675H9.29102C9.52713 2.16675 9.74935 2.21175 9.95768 2.30175C10.166 2.3923 10.3466 2.51397 10.4993 2.66675L17.8327 10.0209C18.1521 10.3404 18.3118 10.7326 18.3118 11.1976C18.3118 11.6631 18.1521 12.0556 17.8327 12.3751L11.8743 18.3334ZM10.6868 17.1667L16.6452 11.2084L9.29102 3.83341H3.33268V9.79175L10.6868 17.1667ZM5.41602 7.16675C5.76324 7.16675 6.05824 7.04508 6.30102 6.80175C6.54435 6.55897 6.66602 6.26397 6.66602 5.91675C6.66602 5.56953 6.54435 5.27453 6.30102 5.03175C6.05824 4.78841 5.76324 4.66675 5.41602 4.66675C5.06879 4.66675 4.77379 4.78841 4.53102 5.03175C4.28768 5.27453 4.16602 5.56953 4.16602 5.91675C4.16602 6.26397 4.28768 6.55897 4.53102 6.80175C4.77379 7.04508 5.06879 7.16675 5.41602 7.16675Z" fill="black"/>
</svg>
