<svg width="166" height="173" viewBox="0 0 166 173" fill="none" xmlns="http://www.w3.org/2000/svg">
<path d="M88.5006 42.3334C111.501 42.3334 130.167 61.0001 130.167 84.0001C130.167 89.3334 129.084 94.4168 127.251 99.1668L139.751 111.667C146.296 99.6574 148.389 85.7218 145.66 72.3196C142.93 58.9174 135.555 46.9101 124.834 38.4168L113.501 0.666748H63.5006L55.5006 27.4167L73.334 45.2501C78.084 43.4168 83.1673 42.3334 88.5006 42.3334ZM75.9173 17.3334H101.084L104.251 27.9167C99.6673 26.5834 87.834 23.6667 72.7506 27.9167L75.9173 17.3334ZM11.9173 7.41675L0.0839844 19.1667L37.2506 56.3334C30.7052 68.3428 28.6125 82.2783 31.3417 95.6805C34.0709 109.083 41.4467 121.09 52.1673 129.583L63.5006 167.333H113.501L121.501 140.583L153.334 172.417L165.084 160.667L11.9173 7.41675ZM101.084 150.667H75.9173L72.7506 140.083C77.334 141.333 89.1673 144.333 104.251 140.083L101.084 150.667ZM88.5006 125.667C65.5006 125.667 46.834 107 46.834 84.0001C46.834 78.6668 47.9173 73.5834 49.7506 68.8334L103.667 122.75C98.9173 124.583 93.834 125.667 88.5006 125.667Z" fill="#6A6868"/>
</svg>
