<svg width="16" height="22" viewBox="0 0 16 22" fill="none" xmlns="http://www.w3.org/2000/svg">
<path d="M15.3121 11C15.3121 9.83995 15.0357 8.69659 14.5058 7.66461C13.976 6.63262 13.2079 5.74171 12.2653 5.06563L11.6653 1.76563C11.6103 1.46273 11.4506 1.18879 11.2141 0.99171C10.9776 0.79463 10.6794 0.686952 10.3715 0.687502H5.62775C5.31991 0.686952 5.02166 0.79463 4.78517 0.99171C4.54867 1.18879 4.38898 1.46273 4.334 1.76563L3.734 5.06563C2.79139 5.74175 2.0234 6.63268 1.49362 7.66466C0.963832 8.69664 0.6875 9.83998 0.6875 11C0.6875 12.16 0.963832 13.3034 1.49362 14.3353C2.0234 15.3673 2.79139 16.2583 3.734 16.9344L4.334 20.2344C4.38898 20.5373 4.54867 20.8112 4.78517 21.0083C5.02166 21.2054 5.31991 21.3131 5.62775 21.3125H10.3715C10.6794 21.3131 10.9776 21.2054 11.2141 21.0083C11.4506 20.8112 11.6103 20.5373 11.6653 20.2344L12.2653 16.9344C13.2079 16.2583 13.976 15.3674 14.5058 14.3354C15.0357 13.3034 15.3121 12.1601 15.3121 11ZM5.44025 1.9625C5.44902 1.91951 5.47258 1.88096 5.50684 1.85355C5.5411 1.82614 5.58389 1.81162 5.62775 1.8125H10.3715C10.4154 1.81162 10.4582 1.82614 10.4924 1.85355C10.5267 1.88096 10.5502 1.91951 10.559 1.9625L10.9903 4.325C10.0493 3.90458 9.03025 3.68729 7.99963 3.68729C6.96901 3.68729 5.94997 3.90458 5.009 4.325L5.44025 1.9625ZM10.559 20.0375C10.5502 20.0805 10.5267 20.119 10.4924 20.1465C10.4582 20.1739 10.4154 20.1884 10.3715 20.1875H5.62775C5.58389 20.1884 5.5411 20.1739 5.50684 20.1465C5.47258 20.119 5.44902 20.0805 5.44025 20.0375L5.009 17.675C5.94997 18.0954 6.96901 18.3127 7.99963 18.3127C9.03025 18.3127 10.0493 18.0954 10.9903 17.675L10.559 20.0375ZM7.99963 17.1875C6.77586 17.1875 5.57957 16.8246 4.56204 16.1447C3.54451 15.4648 2.75144 14.4985 2.28312 13.3679C1.81481 12.2372 1.69227 10.9931 1.93102 9.79288C2.16977 8.59262 2.75907 7.49012 3.62441 6.62478C4.48974 5.75944 5.59225 5.17014 6.79251 4.93139C7.99276 4.69265 9.23686 4.81518 10.3675 5.2835C11.4981 5.75181 12.4645 6.54488 13.1443 7.56241C13.8242 8.57994 14.1871 9.77623 14.1871 11C14.1846 12.6403 13.532 14.2126 12.3721 15.3725C11.2123 16.5323 9.63989 17.185 7.99963 17.1875ZM12.3121 11C12.3121 11.1492 12.2529 11.2923 12.1474 11.3977C12.0419 11.5032 11.8988 11.5625 11.7496 11.5625H7.99963C7.85044 11.5625 7.70737 11.5032 7.60188 11.3977C7.49639 11.2923 7.43713 11.1492 7.43713 11V7.25C7.43713 7.10082 7.49639 6.95774 7.60188 6.85225C7.70737 6.74677 7.85044 6.6875 7.99963 6.6875C8.14881 6.6875 8.29189 6.74677 8.39738 6.85225C8.50287 6.95774 8.56213 7.10082 8.56213 7.25V10.4375H11.7496C11.8988 10.4375 12.0419 10.4968 12.1474 10.6023C12.2529 10.7077 12.3121 10.8508 12.3121 11Z" fill="black"/>
</svg>
